# xmcd
#
# Track frame offsets:
#	150
#	15349
#	27496
#	43078
#	57860
#	70029
#	81855
#	100193
#	110535
#	126067
#
# Disc length: 1893 seconds
# Revision: 0
# Processed by: cddbd v1.5.2PL0 Copyright (c) Steve Scherf et al.
# Submitted via: dBpowerAMP V12.0
#
DISCID=7a07630a
DTITLE=The Churchmen - A Mountain To Climb
DYEAR=2019
DGENRE=Bluegrass
TTITLE0=I'd Like To Be Your Neighbor
TTITLE1=A Mountain To Climb
TTITLE2=Living Where The Son Don't Shine
TTITLE3=What God Has Done For You
TTITLE4=Here I Am
TTITLE5=Branches
TTITLE6=Don't Look Back
TTITLE7=Heaven Is Waiting
TTITLE8=A House Of Gold
TTITLE9=Wings Of Your Love
EXTD=
EXTT0=
EXTT1=
EXTT2=
EXTT3=
EXTT4=
EXTT5=
EXTT6=
EXTT7=
EXTT8=
EXTT9=
PLAYORDER=
